<?xml version="1.0" encoding="utf-8"?>
<!-- Generator: Adobe Illustrator 27.3.1, SVG Export Plug-In . SVG Version: 6.00 Build 0)  -->
<svg version="1.1" id="Layer_1" xmlns="http://www.w3.org/2000/svg" xmlns:xlink="http://www.w3.org/1999/xlink" x="0px" y="0px"
	 viewBox="0 0 500 500" style="enable-background:new 0 0 500 500;" xml:space="preserve">
<style type="text/css">
	.st0{fill:#040404;}
	.st1{font-family:'Poppins-SemiBold';}
	.st2{font-size:20px;}
</style>
<path class="st0" d="M359.51,267.92c-5.86,1.31-11.35,3.36-16.91,3.57c-17.22,0.64-33.86,3.44-49.27,11.38
	c-21.76,11.22-37.3,28.37-46.31,51.09c-7.16,18.08-13.62,36.44-20.38,54.67c-4.05,10.9-8.38,21.66-16.6,30.26
	c-11.46,11.98-25.44,18.58-41.94,20.74c-16.53,2.16-31.68-1.57-44.92-10.78c-21.48-14.92-31.38-36.41-28.47-62.29
	c1.4-12.38,6.22-24.47,10.33-36.41c6.88-19.99,14.45-39.75,21.71-59.62c11.8-32.33,23.55-64.67,35.38-96.99
	c7.48-20.44,15.34-40.74,22.54-61.28c4.41-12.6,10.18-24.23,19.76-33.66c11.42-11.24,25.05-17.52,41.17-18.96
	c16.51-1.48,31.25,2.79,44.18,12.65c11.4,8.69,19.51,20.2,24.49,33.68c11.67,31.56,23.2,63.18,34.77,94.78
	c4.67,12.75,9.51,25.45,13.88,38.31c1.67,4.91,2.32,10.17,3.25,15.31C367.25,260.29,364.66,264.61,359.51,267.92z"/>
<path class="st0" d="M404.6,391.47c-3.81,11.53-9.25,21.71-17.93,29.84c-11.17,10.46-24.24,16.75-39.65,18.22
	c-22.95,2.19-41.93-5.64-57.12-22.58c-9.21-10.27-13.83-22.67-15.72-36.39c-2.25-16.33,1.42-31.26,10.49-44.46
	c13.12-19.09,31.3-29.68,55.12-29.83c23.69-0.15,41.76,10.41,55.43,28.82c8.7,11.72,12.76,25.41,12.13,40.1
	C407.12,380.51,405.59,385.79,404.6,391.47z"/>
<text transform="matrix(1.0069 0 0 1 340 100.4409)" class="st1 st2">TM</text>
</svg>
